<svg xmlns="http://www.w3.org/2000/svg" width="34.054" height="34.054" viewBox="0 0 34.054 34.054"><defs><style>.a{fill:#fff;}</style></defs><path class="a" d="M10.4,32.715a17.081,17.081,0,1,1,6.628,1.338A16.977,16.977,0,0,1,10.4,32.715ZM20.631,21.624,21.638,22.9a6.192,6.192,0,0,0,4.938-2.384,22.385,22.385,0,0,0-2.285-9.492,8.926,8.926,0,0,0-4.569-1.7l-.241.241A12.454,12.454,0,0,1,23.5,11.621a13.645,13.645,0,0,0-12.941,0,12.454,12.454,0,0,1,4.015-2.057l-.241-.241a8.925,8.925,0,0,0-4.568,1.7,22.385,22.385,0,0,0-2.285,9.492A6.192,6.192,0,0,0,12.416,22.9l1.007-1.277a5.4,5.4,0,0,1-2.895-1.958,12.535,12.535,0,0,0,13,0A5.4,5.4,0,0,1,20.631,21.624Zm-2.27-4.455a1.659,1.659,0,1,1,3.306,0,1.659,1.659,0,1,1-3.306,0Zm-5.917,0a1.659,1.659,0,1,1,3.306,0,1.742,1.742,0,0,1-1.661,1.8A1.74,1.74,0,0,1,12.444,17.169Z"/></svg>