<svg xmlns="http://www.w3.org/2000/svg" width="34" height="33.999" viewBox="0 0 34 33.999"><defs><style>.a{fill:#fff;fill-rule:evenodd;}</style></defs><g transform="translate(-0.8 -0.806)"><path class="a" d="M34.8,17.806a17.008,17.008,0,0,0-17-17h0a17,17,0,0,0,0,34h0A17.008,17.008,0,0,0,34.8,17.806Zm-15.293,0a7.515,7.515,0,1,1-7.515-7.567A7.541,7.541,0,0,1,19.507,17.806Zm8.244,0c0,3.933-1.682,7.123-3.757,7.123s-3.757-3.19-3.757-7.123,1.682-7.123,3.757-7.123,3.757,3.189,3.757,7.123Zm3.372,0c0,3.523-.592,6.381-1.321,6.381S28.48,21.33,28.48,17.806s.592-6.381,1.321-6.381S31.123,14.281,31.123,17.806Z" transform="translate(0)"/></g></svg>