<svg xmlns="http://www.w3.org/2000/svg" width="34.054" height="34.054" viewBox="0 0 34.054 34.054"><defs><style>.a{fill:#fff;}</style></defs><path class="a" d="M17.027,34.054A17.031,17.031,0,0,1,10.4,1.338,17.031,17.031,0,0,1,23.655,32.716,16.92,16.92,0,0,1,17.027,34.054Zm-9.581-14.4a.154.154,0,0,0-.154.154v.1A5.784,5.784,0,0,0,13.06,25.7h8.99c1.685,0,2.649-1.547,3.581-3.043.257-.413.524-.84.8-1.224a5.509,5.509,0,0,1,2.031-1.382.16.16,0,0,0,.1-.146V18.793a.155.155,0,0,0-.155-.154.159.159,0,0,0-.042.006l-5.247,1.517a.147.147,0,0,0-.072.044,13.965,13.965,0,0,1-1.161,1.143l-.014.012a1.768,1.768,0,0,1-1.156.428h-1.9V19.851h1.51a.159.159,0,0,0,.105-.039l.194-.179c.1-.093.2-.189.3-.287l.037-.037c.062-.061.125-.125.188-.195.079-.078.154-.16.225-.244.117-.127.229-.257.351-.4a3.329,3.329,0,0,0,.239-.3c.087-.1.173-.218.246-.318l.083-.116c.033-.046.067-.093.1-.142.049-.074.111-.17.161-.26a4.888,4.888,0,0,0,.381-.723c.048-.1.085-.209.122-.312l.019-.052a2.883,2.883,0,0,0,.154-1.255,1.724,1.724,0,0,0-.036-.268v-.014a1.055,1.055,0,0,0-.04-.19,4.447,4.447,0,0,0-.289-.856c-.038-.093-.085-.2-.139-.308-.093-.173-.219-.4-.367-.625-.025-.041-.054-.082-.082-.122s-.05-.072-.072-.108c-.084-.128-.178-.252-.268-.372l-.069-.092c-.051-.066-.107-.134-.162-.2-.038-.045-.076-.091-.113-.137-.1-.126-.192-.228-.275-.322-.277-.313-.59-.63-.984-1-.056-.056-.119-.114-.182-.168-.252-.23-.467-.416-.64-.555-.052-.04-.1-.079-.142-.116s-.067-.056-.1-.081l-.149-.113L19.058,9.3a.172.172,0,0,0-.046-.023l-.2-.057V7.546a.984.984,0,0,0-.285-.7.954.954,0,0,0-.689-.289.982.982,0,0,0-.975.986V8.673l-.1-.028-.274-.078-.25-.069-.007,0h-.006l-1.9-.514a.1.1,0,0,0-.025,0,.1.1,0,0,0-.078.038.1.1,0,0,0-.009.109l.3.559a1.417,1.417,0,0,0,.064.136c.014.027.028.054.041.082.059.12.105.218.146.308.051.11.094.2.135.282l.058.128c.082.182.167.37.251.573.072.17.141.338.2.513.177.457.335.927.472,1.4.035.108.064.216.091.321.012.045.024.09.036.135l.019.085c.058.221.105.447.142.673.029.144.052.292.069.45s.039.336.049.505c.014.145.021.3.021.47a4.935,4.935,0,0,1-.118,1.13l-.011.04c-.025.093-.051.19-.082.283s-.057.178-.091.272l-.041.114-.014.037c-.024.064-.049.129-.079.194a11.233,11.233,0,0,1-.618,1.234c-.4.711-.759,1.233-.893,1.425l-.04.059c-.018.026-.034.049-.049.073a.159.159,0,0,0,.128.248h2.453v1.937h-2.48a1.773,1.773,0,0,1-1.581-.982,1.709,1.709,0,0,1-.179-.962.179.179,0,0,0-.046-.136.158.158,0,0,0-.118-.053Zm5.8-9.372a.154.154,0,0,0-.13.071L8.631,17.371l-.074.117a.153.153,0,0,0,.129.236H13.3a.155.155,0,0,0,.128-.067c.059-.091.116-.187.169-.286a7.766,7.766,0,0,0,.882-1.93c.362-1.552-.645-4.062-1.094-5.07a.151.151,0,0,0-.128-.09h-.011Z"/></svg>