<svg xmlns="http://www.w3.org/2000/svg" width="34.072" height="34.072" viewBox="0 0 34.072 34.072"><defs><style>.a{fill:#fff;}</style></defs><path class="a" d="M34.072,17.036A17.036,17.036,0,1,0,17.036,34.072,17.036,17.036,0,0,0,34.072,17.036ZM7.863,23.09a7.173,7.173,0,0,0,.9.057,7.266,7.266,0,0,0,4.674-1.7,3.822,3.822,0,0,1-3.516-2.8,3.517,3.517,0,0,0,1.7-.057A4,4,0,0,1,8.6,14.625v-.051a3.6,3.6,0,0,0,1.705.52A4.221,4.221,0,0,1,9.141,9.718,10.614,10.614,0,0,0,16.9,14.005a4.193,4.193,0,0,1-.1-.909,3.8,3.8,0,0,1,3.763-3.923,3.745,3.745,0,0,1,2.747,1.3,7.2,7.2,0,0,0,2.39-.921,3.857,3.857,0,0,1-1.656,2.162,7.17,7.17,0,0,0,2.162-.592,7.738,7.738,0,0,1-1.879,2.02c.008.17.011.341.011.511,0,5.225-3.787,11.251-10.709,11.248A10.135,10.135,0,0,1,7.863,23.09Z"/></svg>